G04*
G04 #@! TF.GenerationSoftware,Altium Limited,Altium Designer,20.0.13 (296)*
G04*
G04 Layer_Physical_Order=1*
G04 Layer_Color=255*
%FSLAX25Y25*%
%MOIN*%
G70*
G01*
G75*
%ADD10R,0.05906X0.05906*%
%ADD11C,0.05906*%
D10*
X133000Y-15500D02*
D03*
X23000D02*
D03*
X134500Y-123500D02*
D03*
X108500Y-234000D02*
D03*
X48500D02*
D03*
D11*
X133000Y-25500D02*
D03*
Y-35500D02*
D03*
Y-45500D02*
D03*
Y-55500D02*
D03*
Y-65500D02*
D03*
X23000Y-25500D02*
D03*
Y-35500D02*
D03*
Y-45500D02*
D03*
Y-55500D02*
D03*
Y-65500D02*
D03*
X134500Y-93500D02*
D03*
Y-103500D02*
D03*
Y-113500D02*
D03*
X108500Y-94000D02*
D03*
Y-104000D02*
D03*
Y-114000D02*
D03*
Y-124000D02*
D03*
Y-134000D02*
D03*
Y-144000D02*
D03*
Y-154000D02*
D03*
Y-164000D02*
D03*
Y-174000D02*
D03*
Y-184000D02*
D03*
Y-194000D02*
D03*
Y-204000D02*
D03*
Y-214000D02*
D03*
Y-224000D02*
D03*
X48500Y-94000D02*
D03*
Y-104000D02*
D03*
Y-114000D02*
D03*
Y-124000D02*
D03*
Y-134000D02*
D03*
Y-144000D02*
D03*
Y-154000D02*
D03*
Y-164000D02*
D03*
Y-174000D02*
D03*
Y-184000D02*
D03*
Y-194000D02*
D03*
Y-204000D02*
D03*
Y-214000D02*
D03*
Y-224000D02*
D03*
M02*
