M48
;Layer_Color=9474304
;FILE_FORMAT=2:5
INCH,LZ
;TYPE=PLATED
T1F00S00C0.03543
%
T01
X01085Y-0234
Y-0224
Y-0214
Y-0204
Y-0194
X00485
Y-0204
Y-0214
Y-0224
Y-0234
Y-0184
Y-0174
Y-0164
Y-0154
Y-0144
Y-0134
Y-0124
Y-0114
Y-0104
Y-0094
X0023Y-00655
Y-00555
Y-00455
Y-00355
X0133
Y-00455
Y-00555
Y-00655
X01345Y-00935
Y-01035
Y-01135
Y-01235
X01085Y-0124
Y-0114
Y-0104
Y-0094
Y-0134
Y-0144
Y-0154
Y-0164
Y-0174
Y-0184
X0133Y-00255
Y-00155
X0023
Y-00255
M30
