G04*
G04 #@! TF.GenerationSoftware,Altium Limited,Altium Designer,20.0.13 (296)*
G04*
G04 Layer_Color=65535*
%FSLAX25Y25*%
%MOIN*%
G70*
G01*
G75*
%ADD10C,0.00787*%
%ADD11C,0.00500*%
%ADD12C,0.01000*%
D10*
X63071Y-7000D02*
X62283D01*
X63071D01*
X23567Y-13516D02*
X22780D01*
X23567D01*
X152500Y-239000D02*
Y-89000D01*
X142500Y-231500D02*
Y-89000D01*
Y-239000D02*
Y-231500D01*
Y-239000D02*
X152500D01*
X142500Y-89000D02*
X152500D01*
X119500Y-239000D02*
Y-89000D01*
X109500Y-231500D02*
Y-89000D01*
Y-239000D02*
Y-231500D01*
Y-239000D02*
X119500D01*
X109500Y-89000D02*
X119500D01*
X49500Y-239000D02*
Y-89000D01*
X39500Y-231500D02*
Y-89000D01*
Y-239000D02*
Y-231500D01*
Y-239000D02*
X49500D01*
X39500Y-89000D02*
X49500D01*
X15500Y-239000D02*
Y-89000D01*
X5500Y-231500D02*
Y-89000D01*
Y-239000D02*
Y-231500D01*
Y-239000D02*
X15500D01*
X5500Y-89000D02*
X15500D01*
X44000Y-70000D02*
Y-60000D01*
X4000Y-70000D02*
X44000D01*
X4000Y-60000D02*
X44000D01*
X4000Y-70000D02*
Y-60000D01*
D11*
X70000Y0D02*
X140000D01*
Y-1752D02*
Y0D01*
Y-63000D02*
Y-62232D01*
X70000Y-63000D02*
X140000D01*
X70000D02*
Y-62232D01*
Y-1752D02*
Y0D01*
X25339Y-38988D02*
Y-19303D01*
X5654Y-38988D02*
Y-19303D01*
X38346Y-36193D02*
Y-31311D01*
X31653Y-36193D02*
Y-31311D01*
D12*
X5600Y-3702D02*
Y-8700D01*
X6600Y-9700D01*
X8599D01*
X9599Y-8700D01*
Y-3702D01*
X15597Y-9700D02*
X11598D01*
X15597Y-5701D01*
Y-4702D01*
X14597Y-3702D01*
X12598D01*
X11598Y-4702D01*
X55700Y57098D02*
Y52100D01*
X56700Y51100D01*
X58699D01*
X59699Y52100D01*
Y57098D01*
X61698Y51100D02*
X63697D01*
X62698D01*
Y57098D01*
X61698Y56098D01*
X31500Y-21852D02*
Y-15854D01*
X34499D01*
X35499Y-16854D01*
Y-18853D01*
X34499Y-19853D01*
X31500D01*
X33499D02*
X35499Y-21852D01*
X37498D02*
X39497D01*
X38498D01*
Y-15854D01*
X37498Y-16854D01*
X4600Y-56600D02*
Y-50602D01*
X7599D01*
X8599Y-51602D01*
Y-53601D01*
X7599Y-54601D01*
X4600D01*
X14597Y-50602D02*
X10598D01*
Y-53601D01*
X12597Y-52601D01*
X13597D01*
X14597Y-53601D01*
Y-55600D01*
X13597Y-56600D01*
X11598D01*
X10598Y-55600D01*
X6100Y-85600D02*
Y-79602D01*
X9099D01*
X10099Y-80602D01*
Y-82601D01*
X9099Y-83601D01*
X6100D01*
X15097Y-85600D02*
Y-79602D01*
X12098Y-82601D01*
X16097D01*
X143100Y-85600D02*
Y-79602D01*
X146099D01*
X147099Y-80602D01*
Y-82601D01*
X146099Y-83601D01*
X143100D01*
X149098Y-80602D02*
X150098Y-79602D01*
X152097D01*
X153097Y-80602D01*
Y-81601D01*
X152097Y-82601D01*
X151097D01*
X152097D01*
X153097Y-83601D01*
Y-84600D01*
X152097Y-85600D01*
X150098D01*
X149098Y-84600D01*
X40100Y-85600D02*
Y-79602D01*
X43099D01*
X44099Y-80602D01*
Y-82601D01*
X43099Y-83601D01*
X40100D01*
X50097Y-85600D02*
X46098D01*
X50097Y-81601D01*
Y-80602D01*
X49097Y-79602D01*
X47098D01*
X46098Y-80602D01*
X110100Y-85600D02*
Y-79602D01*
X113099D01*
X114099Y-80602D01*
Y-82601D01*
X113099Y-83601D01*
X110100D01*
X116098Y-85600D02*
X118097D01*
X117098D01*
Y-79602D01*
X116098Y-80602D01*
M02*
