M48
;Layer_Color=9474304
;FILE_FORMAT=2:5
INCH,LZ
;TYPE=PLATED
T1F00S00C0.02800
T2F00S00C0.03543
%
T01
X006Y-0234
X00295Y-0214
X00285Y-0134
X003925Y-004875
X00775Y-01
X00855Y-01195
X00695Y-0131
X00975Y-01735
X0091Y-018
X0152Y-0071
T02
X01085Y-0234
Y-0224
Y-0214
Y-0204
Y-0194
X0147
Y-0204
Y-0214
Y-0224
Y-0234
X00485
Y-0224
Y-0214
Y-0204
Y-0194
X00105
Y-0204
Y-0214
Y-0224
Y-0234
Y-0184
Y-0174
Y-0164
Y-0154
Y-0144
Y-0134
Y-0124
Y-0114
Y-0104
Y-0094
X0009Y-0065
X0019
X0029
X0039
X00485Y-0094
Y-0104
Y-0114
Y-0124
Y-0134
Y-0144
Y-0154
Y-0164
Y-0174
Y-0184
X01085
Y-0174
Y-0164
Y-0154
Y-0144
Y-0134
Y-0124
Y-0114
Y-0104
Y-0094
X0147
Y-0104
Y-0114
Y-0124
Y-0134
Y-0144
Y-0154
Y-0164
Y-0174
Y-0184
M30
